<svg xmlns="http://www.w3.org/2000/svg" width="11.837" height="9.371" viewBox="0 0 11.837 9.371">
  <g id="Group_175" data-name="Group 175" transform="translate(713 -557)">
    <g id="Group_148" data-name="Group 148" transform="translate(-1146 -978)">
      <path id="Icon_map-art-gallery" data-name="Icon map-art-gallery" d="M5.7,4.32C2.589,4.32.72,6.819.72,8.068s.623,2.187,1.869,2.187,1.869.312,1.869,1.249a2.132,2.132,0,0,0,2.18,2.186c4.05,0,5.919-2.186,5.919-4.373C12.557,5.57,9.441,4.32,5.7,4.32Z" transform="translate(432.28 1530.68)" fill="#ffab03"/>
      <circle id="Ellipse_4" data-name="Ellipse 4" cx="1" cy="1" r="1" transform="translate(435 1537)" fill="#06e14f"/>
      <circle id="Ellipse_5" data-name="Ellipse 5" cx="1" cy="1" r="1" transform="translate(438 1537)" fill="#ef0"/>
      <circle id="Ellipse_6" data-name="Ellipse 6" cx="1" cy="1" r="1" transform="translate(441 1538)" fill="#e1062b"/>
      <circle id="Ellipse_7" data-name="Ellipse 7" cx="1" cy="1" r="1" transform="translate(440 1541)" fill="#0a22f9"/>
    </g>
  </g>
</svg>
