<svg xmlns="http://www.w3.org/2000/svg" xmlns:xlink="http://www.w3.org/1999/xlink" width="64" height="64" viewBox="0 0 64 64">
  <defs>
    <filter id="Rectangle_48" x="0" y="0" width="64" height="64" filterUnits="userSpaceOnUse">
      <feOffset dx="1" input="SourceAlpha"/>
      <feGaussianBlur stdDeviation="4" result="blur"/>
      <feFlood flood-color="#888585" flood-opacity="0.659"/>
      <feComposite operator="in" in2="blur"/>
      <feComposite in="SourceGraphic"/>
    </filter>
    <filter id="Icon_awesome-twitter" x="7.473" y="14.202" width="47.054" height="41.597" filterUnits="userSpaceOnUse">
      <feOffset dy="3" input="SourceAlpha"/>
      <feGaussianBlur stdDeviation="3" result="blur-2"/>
      <feFlood flood-opacity="0.161"/>
      <feComposite operator="in" in2="blur-2"/>
      <feComposite in="SourceGraphic"/>
    </filter>
  </defs>
  <g id="Group_77" data-name="Group 77" transform="translate(-793 -3218)">
    <g id="Group_40" data-name="Group 40" transform="translate(48 -53)">
      <g transform="matrix(1, 0, 0, 1, 745, 3271)" filter="url(#Rectangle_48)">
        <rect id="Rectangle_48-2" data-name="Rectangle 48" width="40" height="40" rx="12" transform="translate(11 12)" fill="#323232"/>
      </g>
      <g transform="matrix(1, 0, 0, 1, 745, 3271)" filter="url(#Icon_awesome-twitter)">
        <path id="Icon_awesome-twitter-2" data-name="Icon awesome-twitter" d="M26.067,9.262c.018.258.018.516.018.774,0,7.872-5.991,16.942-16.942,16.942A16.827,16.827,0,0,1,0,24.3a12.318,12.318,0,0,0,1.438.074A11.925,11.925,0,0,0,8.83,21.834,5.965,5.965,0,0,1,3.263,17.7a7.509,7.509,0,0,0,1.125.092,6.3,6.3,0,0,0,1.567-.2A5.955,5.955,0,0,1,1.18,11.75v-.074a6,6,0,0,0,2.692.756A5.963,5.963,0,0,1,2.028,4.468,16.926,16.926,0,0,0,14.306,10.7a6.722,6.722,0,0,1-.147-1.364A5.96,5.96,0,0,1,24.463,5.261a11.723,11.723,0,0,0,3.779-1.438A5.938,5.938,0,0,1,25.625,7.1a11.937,11.937,0,0,0,3.429-.922,12.8,12.8,0,0,1-2.986,3.079Z" transform="translate(16.47 16.82)" fill="#1da1f2"/>
      </g>
    </g>
  </g>
</svg>
