<svg xmlns="http://www.w3.org/2000/svg" xmlns:xlink="http://www.w3.org/1999/xlink" width="64" height="64" viewBox="0 0 64 64">
  <defs>
    <filter id="Rectangle_49" x="0" y="0" width="64" height="64" filterUnits="userSpaceOnUse">
      <feOffset dx="1" input="SourceAlpha"/>
      <feGaussianBlur stdDeviation="4" result="blur"/>
      <feFlood flood-color="#888585" flood-opacity="0.659"/>
      <feComposite operator="in" in2="blur"/>
      <feComposite in="SourceGraphic"/>
    </filter>
  </defs>
  <g id="Group_78" data-name="Group 78" transform="translate(-844 -3218)">
    <g id="Group_39" data-name="Group 39" transform="translate(44 -53)">
      <g transform="matrix(1, 0, 0, 1, 800, 3271)" filter="url(#Rectangle_49)">
        <rect id="Rectangle_49-2" data-name="Rectangle 49" width="40" height="40" rx="12" transform="translate(11 12)" fill="#323232"/>
      </g>
      <g id="Icon_feather-instagram" data-name="Icon feather-instagram" transform="translate(816.348 3288.695)">
        <path id="Path_7" data-name="Path 7" d="M8.826,3H20.479A5.826,5.826,0,0,1,26.3,8.826V20.479A5.826,5.826,0,0,1,20.479,26.3H8.826A5.826,5.826,0,0,1,3,20.479V8.826A5.826,5.826,0,0,1,8.826,3Z" transform="translate(0 0)" fill="none" stroke="#bc2a8d" stroke-linecap="round" stroke-linejoin="round" stroke-width="2"/>
        <path id="Path_8" data-name="Path 8" d="M21.336,15.912a4.661,4.661,0,1,1-3.927-3.927,4.661,4.661,0,0,1,3.927,3.927Z" transform="translate(-2.023 -1.994)" fill="none" stroke="#bc2a8d" stroke-linecap="round" stroke-linejoin="round" stroke-width="2"/>
        <path id="Path_9" data-name="Path 9" d="M26.25,9.75h0" transform="translate(-5.189 -1.506)" fill="none" stroke="#bc2a8d" stroke-linecap="round" stroke-linejoin="round" stroke-width="2"/>
      </g>
    </g>
  </g>
</svg>
